<?xml version="1.0" encoding="UTF-8" standalone="no"?>
<!-- Created with Inkscape (http://www.inkscape.org/) -->

<svg
   width="512"
   height="512"
   viewBox="0 0 512 512"
   version="1.1"
   id="svg1"
   inkscape:export-filename="12ah.svg"
   inkscape:export-xdpi="96"
   inkscape:export-ydpi="96"
   inkscape:version="1.3.2 (091e20e, 2023-11-25, custom)"
   sodipodi:docname="rysunek.svg"
   xmlns:inkscape="http://www.inkscape.org/namespaces/inkscape"
   xmlns:sodipodi="http://sodipodi.sourceforge.net/DTD/sodipodi-0.dtd"
   xmlns="http://www.w3.org/2000/svg"
   xmlns:svg="http://www.w3.org/2000/svg">
  <sodipodi:namedview
     id="namedview1"
     pagecolor="#505050"
     bordercolor="#eeeeee"
     borderopacity="1"
     inkscape:showpageshadow="0"
     inkscape:pageopacity="0"
     inkscape:pagecheckerboard="0"
     inkscape:deskcolor="#505050"
     inkscape:document-units="px"
     inkscape:zoom="1.4142136"
     inkscape:cx="434.87067"
     inkscape:cy="235.113"
     inkscape:window-width="1920"
     inkscape:window-height="1111"
     inkscape:window-x="-9"
     inkscape:window-y="-9"
     inkscape:window-maximized="1"
     inkscape:current-layer="layer1" />
  <defs
     id="defs1" />
  <g
     inkscape:label="Warstwa 1"
     inkscape:groupmode="layer"
     id="layer1">
    <path
       id="rect1"
       style="fill:#ffffff;stroke-width:1.65319"
       d="m 231.09375,10.054693 -17.08984,57.5 -0.97852,1.35156 h -51.34961 v 8.82031 H 59.650393 V 500.6973 H 444.7383 V 77.726563 h -60.9258 l -2.73047,-9.04492 h -51.92578 l -0.0137,0.04688 h -29.56836 v 0.55859 l -19.11716,-59.23242 z m 10.39844,15.34765 29.15429,0.07227 2.84571,9.42969 h -34.59766 z m 98.49414,3.65039 -2.59571,9.5 h 34.59571 l -2.84571,-9.42968 z m -103.89844,16.11915 h 40.50391 l 2.89648,9.59374 H 233.4668 Z m 98.49609,3.64843 -2.62109,9.59375 h 46.01953 l -2.89648,-9.59375 z m -103.92382,16.21289 h 51.92773 l 3.87305,12.82813 H 227.1543 Z M 106.17578,87.123053 H 398.89062 V 490.4141 H 106.17578 Z m 26.6582,26.199217 V 463.1699 H 372.94336 V 113.32227 Z" />
  </g>
</svg>
