<?xml version="1.0" encoding="UTF-8" standalone="no"?>
<!-- Created with Inkscape (http://www.inkscape.org/) -->

<svg
   width="193.64198mm"
   height="247.7202mm"
   viewBox="0 0 731.87523 936.26533"
   version="1.1"
   id="svg1"
   xmlns:inkscape="http://www.inkscape.org/namespaces/inkscape"
   xmlns:sodipodi="http://sodipodi.sourceforge.net/DTD/sodipodi-0.dtd"
   xmlns="http://www.w3.org/2000/svg"
   xmlns:svg="http://www.w3.org/2000/svg">
  <sodipodi:namedview
     id="namedview1"
     pagecolor="#505050"
     bordercolor="#eeeeee"
     borderopacity="1"
     inkscape:showpageshadow="0"
     inkscape:pageopacity="0"
     inkscape:pagecheckerboard="0"
     inkscape:deskcolor="#505050"
     inkscape:document-units="mm" />
  <defs
     id="defs1" />
  <g
     inkscape:label="Warstwa 1"
     inkscape:groupmode="layer"
     id="layer1"
     transform="translate(-27.722466,-157.8211)">
    <path
       id="rect23-8"
       style="fill:#ffffff;fill-opacity:1;stroke:#ffffff;stroke-width:0;stroke-dasharray:none;stroke-opacity:1"
       d="m 456.73878,157.82111 -0.94186,238.22986 H 758.6604 l 0.93733,-238.22986 z m 130.5083,60.39156 h 44.20525 V 338.53172 H 587.24708 Z M 455.79692,423.10081 v 114.57136 h 69.57556 V 672.77464 H 758.6604 V 423.10081 Z m 69.57556,276.98671 v 289.81243 h 32.49819 v -24.84716 h 99.035 v 25.12986 h 90.65244 V 965.05279 H 758.6604 V 700.08752 Z" />
    <path
       id="rect1-8"
       style="fill:#ffffff;fill-opacity:1;stroke:#ffffff;stroke-width:0"
       d="M 27.722467,567.89063 V 870.09945 H 496.99237 V 567.89063 Z M 129.05534,674.85937 h 266.24423 v 86.3771 H 129.05534 Z M 27.722467,897.40473 V 1026.188 H 496.99237 V 897.40473 Z" />
    <rect
       style="fill:#ffffff;fill-opacity:1;stroke:#ffffff;stroke-width:0"
       id="rect5"
       width="39.631798"
       height="33.534592"
       x="55.888725"
       y="1020.3671" />
    <rect
       style="fill:#ffffff;fill-opacity:1;stroke:#ffffff;stroke-width:0"
       id="rect6"
       width="33.534592"
       height="19.307796"
       x="139.21706"
       y="1019.3509" />
    <rect
       style="fill:#ffffff;fill-opacity:1;stroke:#ffffff;stroke-width:0"
       id="rect7"
       width="36.583195"
       height="21.3402"
       x="204.25371"
       y="1018.3348" />
    <rect
       style="fill:#ffffff;fill-opacity:1;stroke:#ffffff;stroke-width:0"
       id="rect8"
       width="38.615597"
       height="24.388796"
       x="270.30676"
       y="1017.3185" />
    <rect
       style="fill:#ffffff;fill-opacity:1;stroke:#ffffff;stroke-width:0"
       id="rect9"
       width="80.279793"
       height="23.372599"
       x="370.91058"
       y="1020.3671" />
    <rect
       style="fill:#ffffff;fill-opacity:1;stroke:#ffffff;stroke-width:0"
       id="rect10"
       width="62.988201"
       height="95.059555"
       x="388.237"
       y="999.02686" />
  </g>
</svg>
