<?xml version="1.0" encoding="UTF-8" standalone="no"?>
<!-- Created with Inkscape (http://www.inkscape.org/) -->

<svg
   width="1200"
   height="630"
   viewBox="0 0 1200 630"
   version="1.1"
   id="svg1"
   inkscape:export-filename="zink.svg"
   inkscape:export-xdpi="96"
   inkscape:export-ydpi="96"
   xmlns:inkscape="http://www.inkscape.org/namespaces/inkscape"
   xmlns:sodipodi="http://sodipodi.sourceforge.net/DTD/sodipodi-0.dtd"
   xmlns="http://www.w3.org/2000/svg"
   xmlns:svg="http://www.w3.org/2000/svg">
  <sodipodi:namedview
     id="namedview1"
     pagecolor="#505050"
     bordercolor="#eeeeee"
     borderopacity="1"
     inkscape:showpageshadow="0"
     inkscape:pageopacity="0"
     inkscape:pagecheckerboard="0"
     inkscape:deskcolor="#505050"
     inkscape:document-units="px"
     inkscape:zoom="0.42708333"
     inkscape:cx="373.46341"
     inkscape:cy="183.80488"
     inkscape:window-width="1920"
     inkscape:window-height="1111"
     inkscape:window-x="-9"
     inkscape:window-y="-9"
     inkscape:window-maximized="1"
     inkscape:current-layer="layer1" />
  <defs
     id="defs1">
    <inkscape:path-effect
       effect="spiro"
       id="path-effect29"
       is_visible="true"
       lpeversion="1" />
    <clipPath
       clipPathUnits="userSpaceOnUse"
       id="clipPath98">
      <path
         id="path99"
         style="fill:#ff0000;fill-opacity:1;fill-rule:nonzero;stroke:none;stroke-width:1"
         d="m 13.937241,245.77911 v 149.72901 c 0.794276,-3.44754 1.938677,-6.6432 3.418088,-10.20134 1.443331,-1.269 2.296216,-2.81476 2.929681,-4.46294 1.172509,-4.40798 2.512488,-8.84787 4.517379,-12.91782 0.09457,-0.19197 -0.07951,0.8245 0.03327,0.64264 0.359308,-0.57939 0.500027,-1.27019 0.749999,-1.90448 1.187088,-5.15668 2.082626,-10.35504 4.826602,-14.98863 0.665847,-1.12438 1.212084,-3.19644 2.105591,-3.99571 0.760214,-2.47464 1.104481,-3.53025 3.666069,-6.55492 0.186716,-0.22047 0.443121,-0.68373 0.687247,-0.52923 0.264564,0.16744 -0.487486,0.64562 -0.220765,0.91406 2.024868,-4.7686 4.247542,-8.62893 8.249982,-12.16631 0.244045,-0.21568 -0.01912,1.01181 0.294859,0.93221 1.762893,-4.31012 3.900456,-8.27502 6.802905,-11.98107 1.727799,-2.20621 3.736606,-4.17562 5.585675,-6.28124 12.016843,-13.68402 2.365516,-2.96468 14.095734,-15.85733 l 3.269904,2.80267 c 0.05266,-0.0521 0.09736,-0.11167 0.151966,-0.16179 0.217482,-0.19978 0.493552,-0.32597 0.74017,-0.48841 0.333096,0.0706 0.07031,0.0455 0.601815,-0.46497 1.150232,-1.10478 2.318979,-2.19079 3.521663,-3.23815 0.531792,-0.28631 1.029245,-0.65061 1.595257,-0.86113 0.04371,-0.0163 -0.04874,0.16852 -0.01134,0.14062 1.815469,-1.35288 3.095966,-3.32354 4.9763,-4.60962 l 0.99798,0.99798 c -0.119163,-0.53634 -0.244826,-1.07078 -0.396165,-1.6013 -0.176969,-0.6202 -0.40467,-1.22535 -0.613156,-1.83568 -0.166208,-0.48654 -0.341044,-0.97043 -0.511846,-1.45539 l 2.296873,-0.92011 c 0.182763,0.51677 0.371236,1.03209 0.54889,1.55065 0.213716,0.62383 0.4454,1.24327 0.626763,1.87726 0.04761,0.16641 0.08811,0.32224 0.130795,0.48085 h 0.437752 l 3.341729,-2.92439 c 0.152741,0.14373 0.315491,0.27583 0.474042,0.4128 0.03054,-0.52937 0.09597,-0.93435 0.201863,-1.4947 0.0445,-0.23548 0.100823,-0.46883 0.151211,-0.70313 l 0.579889,0.19355 c 0.075,-0.47189 0.135128,-0.94551 0.189011,-1.42061 l 0.30922,0.0514 c -0.0051,-0.72111 -0.02543,-1.44269 -0.0083,-2.16305 h 1.916578 c -0.01966,0.832 0.0015,1.66536 0,2.49798 h 0.03325 c 1.08e-4,-0.0398 -3.29e-4,-0.0797 7.74e-4,-0.11946 h 0.478579 c -0.0061,0.24787 0.0081,0.49616 0,0.74395 -0.0074,0.22543 -0.03337,0.44973 -0.04309,0.67515 -0.02319,0.13597 -0.0233,0.27441 -0.03403,0.41129 -0.0139,0.1774 -0.01866,0.11502 -0.02872,0.28503 -0.0031,0.0491 -0.0031,0.0983 -0.0045,0.14743 3.87e-4,0.0498 0.0035,0.0999 0.0015,0.1497 -3.87e-4,0.0116 -0.0015,0.0216 -0.0023,0.0325 0.0079,0.0499 0.01781,0.0996 0.01889,0.15045 -0.0073,0.0485 -0.0078,0.0978 -0.0053,0.14668 7.74e-4,0.0297 -4e-6,0.0579 0,0.0877 8.9e-5,0.0549 3.1e-5,0.11143 0,0.16633 -1.6e-5,0.0554 0,0.11093 0,0.16633 -4e-6,0.0505 0,0.1 0,0.15045 v 0.25932 0.16029 c 0.0082,0.19383 0.0192,0.3885 0.02872,0.58215 3.8e-4,0.0255 -3.87e-4,0.0509 0.0023,0.0764 0.0027,0.0702 0.0066,0.14027 0.01285,0.21018 h 0.05443 v 1.83493 0.0854 c 2.294826,2.01714 4.607666,4.01426 6.909516,6.02418 2.93567,2.56304 1.60127,1.24365 3.73411,3.50957 l -5.14867,4.74268 c -1.53722,-1.72887 -0.44804,-0.58367 -3.20263,-2.99092 -2.716839,-2.37388 -5.45845,-4.72101 -8.15093,-7.12271 0.01637,0.48905 0.03244,0.97761 0.04687,1.46673 l 0.511845,0.34173 c -0.130807,0.15845 -0.312177,0.37819 -0.486138,0.5882 0.0023,0.1028 0.0043,0.20568 0.006,0.30847 l 0.697074,1.62853 c -0.225797,0.14641 -0.437217,0.31231 -0.653983,0.47101 0.01312,0.34849 0.03085,0.66277 0.05066,0.96321 0.01785,0.0507 0.0402,0.15341 0.05671,0.19128 0.0779,0.0728 0.156468,0.14569 0.234375,0.21849 -0.0027,-0.0381 -0.04254,-0.13231 -0.0083,-0.11491 0.197961,0.10149 0.343706,0.28315 0.523942,0.41355 0.436691,0.49367 0.551592,0.49427 0.620712,1.29133 0.01699,0.19616 -0.07563,0.38664 -0.113407,0.57989 l -2.358866,-0.75151 c -7.74e-4,0.0674 0.0476,0.12512 0.05444,0.19506 0.277629,0.14881 0.505362,0.33998 0.613152,0.62676 0.18996,0.50537 -1.071381,-0.13005 -1.607354,-0.19506 l 0.529234,-0.39466 c -0.08804,-0.0721 -0.269287,-0.21494 -0.27747,-0.22454 -0.03813,-0.0448 -0.04878,-0.10202 -0.08392,-0.14819 -0.187025,-0.0663 -0.369661,-0.13241 -0.534525,-0.21093 -0.0283,-0.0135 0.04337,0.67168 -0.02191,-0.0204 -0.02055,-0.26495 -0.03685,-0.48121 -0.05443,-0.71144 -0.199792,0.14794 -0.409776,0.28292 -0.605596,0.43624 l -0.0023,0.002 c -0.03832,0.0317 -0.08776,0.0914 -0.124749,0.12097 -0.413275,0.33025 -0.929108,1.13293 -1.333666,1.05468 -1.043587,0.85952 -2.067595,1.74308 -3.086184,2.63105 -0.530128,0.50053 -0.961682,0.90015 -1.646671,1.54536 l 3.914054,3.35533 c -12.487018,13.74648 -2.107691,2.20066 -14.189485,15.96242 -1.9056,2.17048 -4.309098,4.58547 -6.207142,7.2467 0.965998,-0.90024 1.024717,-0.83503 -0.333417,1.35106 -4.616274,4.83458 -3.572199,15.48194 -10.322308,18.88529 -0.0031,-0.0934 0.05067,-0.24966 0.07183,-0.37122 -1.257195,2.84096 -2.877103,5.50665 -3.952614,8.44127 -0.776994,2.04558 -2.030879,5.49224 -2.996211,7.32004 -0.800708,1.51604 -1.701469,2.98411 -2.703626,4.37524 -0.207107,0.2875 -0.63421,0.34066 -0.878525,0.59728 -0.837823,0.88006 -1.555782,3.62238 -1.732859,4.1197 -0.834714,1.36564 -1.613338,2.76579 -2.503272,4.0955 -1.046603,2.99159 -1.161198,3.89704 -1.865167,5.65448 -0.05424,0.31636 -0.125137,0.628 -0.187498,0.94279 0.07223,2.78961 -2.58335,9.59055 -3.652463,12.23435 -2.583536,6.38892 -1.741161,2.51025 -2.44203,6.49444 -0.310354,0.97478 -0.621095,1.95111 -0.931449,2.9259 -0.02803,0.17475 -0.104361,0.69898 -0.08392,0.52318 0.08931,-0.77042 0.42984,-3.07128 0.291077,-2.30821 -0.322075,1.77111 -0.356538,3.59991 -0.839967,5.33391 -0.148788,0.53372 -0.623807,1.46696 -1.00403,2.28931 -0.111476,1.01265 -0.254478,2.01936 -0.419605,2.84123 -1.0942,5.44604 -2.747486,10.80011 -2.976557,16.39109 -0.0153,4.45094 0.136904,8.90048 0.06275,13.34952 -0.139212,1.86204 -0.117784,5.18685 -0.578377,6.92539 -0.02688,0.10145 -0.312572,0.045 -0.278981,0.1444 0.466258,1.38046 1.125603,2.68827 1.689008,4.032 0.927741,4.31678 2.251908,8.57845 3.076355,12.91403 0.104932,0.55185 -0.06113,1.13322 0.05443,1.68296 0.124915,0.59426 0.383048,1.15231 0.605593,1.71925 3.113555,4.42436 2.703702,10.12942 2.295358,15.25551 -0.119957,1.60389 -0.318704,3.83118 -0.313002,5.4511 0.0042,1.19403 0.416628,2.42222 0.127014,3.58064 -0.0818,0.32719 -1.113365,-0.37038 -1.009322,-0.0491 2.349514,7.24422 2.848248,7.86018 2.845005,6.99418 -0.199444,-0.38031 -0.419415,-0.75127 -0.593496,-1.14238 -0.146194,-0.32845 0.281817,0.39651 0.589714,0.90196 -0.110156,-1.38745 -0.86281,-4.49766 0.229083,0.35156 -0.07646,-0.11708 -0.109304,-0.15499 -0.229083,-0.35156 0.0077,0.0973 0.0035,0.16412 0.0039,0.24042 2.679501,5.10926 7.324486,9.37458 8.041314,15.22452 5.697642,3.90536 8.839723,7.88022 11.392868,14.9047 0.125686,0.73596 0.592602,1.49228 0.376513,2.2069 -0.103982,0.34382 -0.930892,-1.02227 -0.841481,-0.67439 0.165019,0.64206 0.689174,1.13653 1.095509,1.66028 1.707457,2.20063 3.957947,4.17495 5.138853,6.73864 4.96084,4.56389 9.538156,9.73015 12.783236,15.66756 -2.681239,-0.34311 0.506906,-0.0859 3.006044,3.39465 0.0079,0.011 -0.0046,0.006 0.0015,0.0159 3.652943,2.43902 6.278092,5.07386 7.925635,9.78097 0.26096,0.77032 0.481698,1.55514 0.783265,2.31048 0.426003,1.06698 0.993884,2.02939 1.53931,3.00605 0.861254,-1.25487 1.777347,3.59134 1.877265,4.08189 0.587604,0.70863 2.636692,1.83485 1.763102,2.12525 -1.531371,0.50905 -6.006824,-2.09875 -4.702612,-1.14844 1.938406,1.41249 4.480252,1.71062 6.704622,2.60761 2.257551,0.91033 3.761237,3.9686 4.906746,6.11869 3.583391,0.90684 1.738615,0.34522 7.068281,2.07459 2.95691,0.5702 6.08238,1.32325 8.69529,2.89263 1.70114,1.02181 3.17472,2.38372 4.80468,3.51562 0.87853,0.61012 1.81093,1.13786 2.71647,1.70715 1.34807,0.97593 2.69678,1.95152 4.04485,2.92742 3.99351,2.10456 8.05692,4.0992 11.86162,6.54283 2.0425,1.31179 3.84107,2.9914 5.92589,4.23463 0.51881,0.30933 -0.95366,-0.74334 -1.42968,-1.11518 4.43538,2.2342 4.28898,1.80696 7.55064,4.45086 0.85161,0.69024 2.70661,2.61073 4.00553,3.20942 0.50676,0.23353 1.0758,0.29756 1.61341,0.44682 0.85681,0.46769 1.71395,0.9348 2.57056,1.40245 0.63716,-0.0593 1.30181,-0.11172 1.92943,-0.16784 l 0.16255,1.30041 c 2.86175,0.0617 4.40103,3.97117 7.17186,4.52569 0.33001,0.066 -0.66498,-0.87801 -0.33644,-0.9511 1.27348,-0.2835 2.61809,-0.007 3.91254,0.15651 4.96852,0.62512 5.15114,1.02909 9.81651,2.84724 0.72851,0.22874 1.43446,0.54561 2.18498,0.68574 0.25591,0.0478 0.51318,-0.0883 0.76965,-0.13304 1.89967,0.58467 3.79972,1.16837 5.69908,1.75401 1.62989,0.50253 3.41435,1.46879 5.12751,0.88838 7.20944,-0.93061 14.48684,-0.68643 21.73181,-0.53074 4.87259,-0.23729 9.82433,0.36425 14.6915,-0.0159 0.15689,-0.0124 5.53619,-1.18354 5.62499,-1.20286 3.20525,-0.74005 6.44964,-0.60785 9.69176,-0.33038 0.48051,0.0411 3.20001,0.30464 3.29712,0.22304 0.31189,-0.26214 -0.79815,-0.17489 -1.19607,-0.26237 4.58644,-1.98704 9.49921,-2.94305 14.40648,-3.75905 4.23281,-0.70397 4.61458,0.75456 4.1076,-0.82862 0.69007,-0.22804 1.38964,-0.42809 2.07005,-0.68346 3.02512,-1.13566 -0.75412,-0.51402 5.51007,-1.66633 1.24586,-0.2292 2.53098,-0.17791 3.78326,-0.36898 0.28793,-0.0439 0.87181,-0.0455 0.80821,-0.32961 -0.0647,-0.28924 -0.59213,-0.0182 -0.88835,-0.0271 8.09301,-3.04799 1.89104,-1.09637 9.45512,-2.60612 0.0953,-0.019 0.13263,-0.14059 0.19884,-0.21166 0.3745,-0.11981 0.73642,-0.29067 1.12349,-0.35989 5.04802,-0.90255 2.65041,0.0344 4.90598,-0.92996 5.87629,-2.87802 12.25972,-4.42296 18.26004,-7.00628 0.17834,-0.19645 0.30289,-0.46088 0.53529,-0.58897 1.44755,-0.79672 2.88645,-1.67215 4.4705,-2.14263 1.52508,-0.45296 3.0976,-0.74032 4.62323,-1.19153 0.11083,-0.0328 0.35591,-0.22846 0.24193,-0.24797 -0.2981,-0.0511 -0.59756,0.0918 -0.89667,0.13683 2.65803,-1.68089 5.70994,-2.62701 8.43143,-4.18925 0.39144,-0.30376 0.7827,-0.60877 1.17414,-0.91255 -0.11563,2.4e-4 -0.44455,0.0633 -0.34778,0 5.45635,-3.32246 3.40693,-1.9903 6.23436,-3.85356 2.94623,-1.64707 5.67035,-3.16615 8.36717,-5.18952 0.99266,-0.74465 2.0998,-1.34647 3.01587,-2.18345 1.12691,-1.02974 1.79104,-2.4727 2.67565,-3.71672 2.34826,-2.67699 5.35405,-4.95848 7.44177,-7.89464 0.13876,-0.19517 0.14313,-0.45651 0.21472,-0.68499 0.36488,-0.61614 0.61811,-1.31209 1.09324,-1.84778 0.73626,-0.83005 1.56614,-1.57114 2.37323,-2.33392 -0.43172,-0.56403 0.29344,-1.48173 0.58821,-2.16077 1.73943,-4.00714 4.29582,-6.99808 7.0955,-10.19908 0.48507,-0.48829 0.90418,-0.93203 1.55896,-1.63079 -0.25098,0.36046 0.18889,-0.57642 2.47077,-5.75956 0.91504,-2.07871 2.7807,-5.20511 3.94656,-7.2263 1.38977,-1.62245 1.50176,-1.72025 2.18573,-2.49874 -0.21591,0.11735 0.11084,-0.49139 1.87876,-2.95463 0.71299,-0.99317 1.61914,-1.84626 2.27345,-2.87902 0.0843,-0.13302 -0.52854,0.18092 -0.47028,0.0348 0.40262,-1.00839 1.06076,-1.89612 1.59151,-2.84349 1.0899,-3.97816 3.85404,-6.91587 6.30087,-10.07281 -0.13618,0.1534 -0.30387,0.31075 -0.39089,0.23211 -0.2069,-0.18747 0.12217,-0.54496 0.18372,-0.81729 1.21904,-4.29633 4.76678,-7.30836 6.75986,-11.13581 0.82525,-1.58539 1.22446,-3.36054 1.86893,-5.02771 0.87414,-6.78246 3.92531,-12.80682 6.98058,-18.80969 v -0.002 c -1.27738,-5.47403 -0.79304,-8.20101 0.0454,-13.78349 0.0244,-0.0778 1.26832,-3.39264 1.26333,-4.57181 0,-0.17818 -0.18167,-0.33099 -0.16177,-0.50806 0.33073,-2.93839 1.0584,-5.79531 1.32762,-8.7399 -1.07899,-5.11063 1.68282,-10.38557 3.46494,-15.13908 0.48882,-1.15888 1.47692,-2.35764 1.22705,-3.70085 -0.0372,-0.20062 -0.2033,-0.36695 -0.223,-0.57006 -0.14157,-1.45713 -0.1752,-2.92347 -0.25781,-4.38507 -0.29783,-5.26747 -0.228,-3.94153 -0.41586,-8.40422 0.0957,-5.81748 0.18182,-11.63527 0.14443,-17.45485 -0.4471,-2.19852 0.5208,-5.85396 -0.0256,-7.92035 -0.0616,-0.23227 -0.61208,0.28489 -0.71675,0.0688 -1.1967,-2.47218 -1.95963,-6.38642 -2.58189,-9.09373 -2.1279,-2.61975 -1.98665,-6.40224 -2.67564,-9.47704 -0.17679,-0.78894 -0.61839,-1.49313 -0.92768,-2.24017 -1.52167,-2.68506 -1.5713,-2.82927 -2.29687,-4.63305 -0.79216,-0.85902 -1.41162,-1.87734 -1.95135,-2.91381 -1.72703,-3.31658 -3.06905,-6.8204 -4.68371,-10.19302 -0.98895,-1.77072 -1.39954,-3.78353 -2.24396,-5.61365 -0.11814,-0.25611 0.43665,0.99576 0.21701,0.8188 -1.63842,-1.32004 -3.9308,-6.17158 -4.28755,-7.08038 -0.3521,-0.89696 -0.57391,-1.83603 -0.77497,-2.78149 -2.4677,-2.55414 -2.55348,-3.70287 -4.67991,-6.32963 -0.11226,-2.15741 -0.66445,-0.0653 -0.86113,-0.29712 -1.22474,-1.44374 -4.93027,-5.67567 -6.09752,-8.49192 -0.18447,-0.44506 -0.56091,-1.21773 -0.89063,-1.92036 -0.65554,-1.16514 -1.28951,-2.37855 -2.09424,-3.41204 -1.31482,-1.68853 -1.63944,-1.15136 -2.76563,-3.94732 -0.37102,-0.92114 -0.62487,-1.87974 -0.85886,-2.84727 -0.75812,-0.6373 -2.72904,-4.93759 -2.89869,-5.21899 -0.32097,-0.53243 -0.83832,-0.92534 -1.18774,-1.43951 -0.68288,-1.0043 -1.26976,-2.06967 -1.9045,-3.10509 -2.29611,-3.32338 -0.61023,-0.89998 -1.7578,-2.7384 -0.79552,0.0181 -2.53204,-1.64706 -1.77671,-1.57031 0.41302,0.0419 0.76329,0.27473 1.11516,0.50353 -0.21467,-0.31278 -0.53228,-0.68985 -0.60937,-0.80066 -1.21679,-1.05868 -2.44505,-2.09974 -3.80669,-2.95538 -0.833,-0.5235 1.50787,1.35525 1.89844,2.25831 0.22299,0.51558 -0.92532,-0.63909 -1.3556,-1.00025 -1.03391,-0.86785 -2.04235,-1.76652 -3.03325,-2.68321 -1.96497,-1.81771 -2.59973,-2.50211 -3.23815,-3.37121 -1.3596,-0.4365 -2.96464,-1.02705 -3.61769,-1.25806 -0.37064,-0.14532 -0.72174,-0.3499 -1.11064,-0.43549 -0.34534,-0.076 0.68744,0.23308 0.95111,0.46875 0.0771,0.069 -0.19119,0.0833 -0.29334,0.0998 -0.48465,0.0781 -0.974,0.13932 -1.46296,0.18372 -0.0774,0.007 -0.15464,0.009 -0.23209,0.0151 -0.80126,0.69112 -1.48326,1.25749 -2.42995,2.0315 0.30905,1.00144 -1.32122,2.13612 -1.88633,3.19732 -3.49716,6.56683 -1.50367,2.77537 -4.91052,9.31072 -4.43931,7.63477 -1.12665,2.28898 -5.48587,8.5524 -0.0417,0.18504 -0.3788,0.97082 -0.72656,1.77897 0.0425,0.0617 0.0897,0.2529 0.16406,0.74622 l -0.51185,0.0688 c -0.0956,0.21233 -0.0783,0.19888 -0.19128,0.44531 0.094,-0.13193 0.10529,-0.27694 0.16558,-0.44153 l -19.08791,2.54712 c -0.39058,-3.10692 -0.61513,-6.08993 0.41431,-9.14287 0.38603,-0.914 0.77222,-1.82821 1.15826,-2.74218 0.0121,0.0867 1.2e-4,0.33939 0.037,0.26008 0.49102,-1.04967 0.82269,-2.17121 1.34198,-3.20715 1.29799,-2.58947 1.22726,-1.56453 2.78906,-3.97076 0.85181,-1.31238 1.58603,-2.6996 2.37852,-4.04863 1.93035,-3.70162 3.95475,-8.40497 6.28502,-11.81852 1.43058,-2.09562 2.88767,-4.17895 4.49243,-6.14439 0.25997,-0.31841 0.97134,-1.0231 1.06602,-0.72127 0.28534,-0.40112 0.58204,-0.79037 0.95565,-1.10685 3.0862,-2.61473 5.59681,-3.7708 4.46823,-2.8813 0.96777,-0.51298 1.32784,-0.71109 1.82283,-0.98815 v -0.55343 l -0.10358,-0.15574 c -0.014,0.0166 -0.0277,0.0329 -0.0416,0.0491 0.004,-0.0311 0.008,-0.0678 0.0121,-0.0892 0.002,-0.0121 0.005,-0.0243 0.006,-0.0363 0.001,-0.0224 -0.003,-0.0433 -0.004,-0.0658 -0.001,-0.0212 -0.001,-0.0438 -0.002,-0.065 0.003,-0.0237 0.005,-0.0468 0.008,-0.0703 0.005,-0.034 0.0177,-0.065 0.0227,-0.099 0.0161,-0.12017 0.0157,-0.24503 0.0159,-0.36592 0.002,-0.0371 0.003,-0.0742 0.008,-0.11114 0.003,-0.0246 0.007,-0.0475 0.0113,-0.0718 0.002,-0.009 0.007,-0.0195 0.008,-0.0279 0.007,-0.0825 -0.007,-0.16538 0,-0.24798 0,-0.17406 -1.2e-4,-0.34932 0,-0.5232 0,-0.18452 -10e-4,-0.36808 -0.002,-0.55266 0,-0.23749 0.0169,-0.47556 0.005,-0.71295 -0.009,-0.0826 -0.0212,-0.16518 -0.0272,-0.24798 -0.003,-0.0434 -0.005,-0.0873 -0.005,-0.1308 -0.002,-0.17837 0.003,-0.35519 0.0174,-0.53301 l 0.0635,0.006 c -0.001,-0.15937 0.003,-0.31877 0.025,-0.47708 -0.0102,-0.046 -0.0216,-0.0971 -0.028,-0.12475 -0.0326,-0.14069 -0.0653,-0.28148 -0.0877,-0.42414 -0.0156,-0.0988 -0.0173,-0.1997 -0.0257,-0.29938 -0.0363,-0.26573 -0.11861,-0.52371 -0.1497,-0.79007 -0.0172,-0.14728 0,-0.29705 0,-0.44532 v -2.15549 h 1.63382 c 0.0215,-1.12907 0.0654,-2.25841 0.059,-3.38859 -0.003,-0.12422 -0.005,-0.24852 -0.008,-0.37274 l 2.70967,-0.062 c 0.003,0.1399 0.005,0.27973 0.008,0.4196 1.1e-4,0.0204 -7.7e-4,0.0408 -7.7e-4,0.0612 l 0.64491,-0.28654 c 0.61357,1.67074 1.15885,3.39422 1.17716,5.19252 0.004,0.42324 -0.0814,0.84274 -0.099,1.26563 -0.0589,1.41021 -0.0425,3.08135 -0.0423,4.48336 0.003,0.17597 0.005,0.35177 0.008,0.52772 3.9e-4,0.001 0.002,0.002 0.002,0.003 1.1235,-0.11923 2.2394,-0.31359 3.37349,-0.33946 3.22837,-0.0738 6.32009,0.45591 9.22226,1.91355 -0.52196,-0.0532 -2.07413,-0.28321 -1.56427,-0.15953 0.88926,0.21576 1.80922,0.27012 2.70892,0.437 0.24106,0.0447 0.95404,0.18583 0.70918,0.19732 -1.33713,0.0626 -5.22443,-0.61741 -4.01537,-0.0431 13.67025,6.49658 7.12154,-0.71778 11.88808,5.17589 -1.15204,0.54197 -0.35326,0.0659 1.84399,2.18952 0.81894,0.79153 2.28543,2.11102 3.64037,3.33794 0.26797,0.12833 0.53466,0.25943 0.80293,0.3871 -0.0234,-0.0195 -0.0484,-0.0401 -0.0718,-0.0597 -0.17273,-0.14492 0.80339,0.40712 0.59955,0.31073 -0.17563,-0.0831 -0.35,-0.16829 -0.52546,-0.25176 1.46882,1.22053 3.10948,2.24139 4.48033,3.57081 1.77343,1.71972 2.41465,4.32328 4.0645,6.13758 4.5601,7.75402 -5.21777,-8.78918 3.99796,6.22907 0.24453,0.39843 0.37494,0.85486 0.56253,1.28301 0.0294,0.10109 0.0341,0.2137 0.0869,0.3047 0.88877,1.52933 1.99165,2.94283 2.73236,4.54912 0.28358,0.61494 0.41179,1.28299 0.5345,1.95439 0.53063,0.65656 1.07423,1.30365 1.55295,1.99822 4.02948,5.84667 1.22574,2.26638 -0.23214,1.27394 1.45172,1.99416 2.87593,4.00839 4.3556,5.98184 0.20923,0.27908 -0.69522,-1.20966 -0.54131,-0.89667 0.33201,0.67474 1.50092,1.36509 1.07585,1.98538 -0.38496,0.5618 -2.36481,-1.29314 -1.86897,-0.82636 11.20232,10.54504 -0.8198,-2.65304 6.45741,5.55998 0.58525,0.85173 1.19679,1.68533 1.75552,2.55467 0.24209,0.37661 1.08685,1.23609 0.64266,1.18019 -0.64544,-0.0812 -2.04569,-1.58397 -1.61342,-1.09777 2.02297,2.27566 4.31988,4.32701 6.11113,6.7893 0.50326,0.69184 0.4253,1.65696 0.63735,2.48588 -1.04868,1.46525 1.93529,3.88036 2.29687,4.40472 1.67826,2.4336 2.73847,4.9154 3.70691,7.67162 0.77632,1.6369 1.60068,3.25118 2.32784,4.91052 0.54406,1.24115 0.69972,2.6667 1.43953,3.80215 0.86183,1.32259 1.90351,2.52788 2.6938,3.89441 0.67332,1.16421 0.9893,2.50228 1.36692,3.81274 v -134.5841 z m 335.717269,59.58782 c 0.10624,0.19735 0.11473,0.50159 0.31981,0.59199 0.0375,0.0165 0.0818,0.0208 0.11945,0.0371 -0.20422,-0.29429 -0.18009,-0.26312 -0.43926,-0.62904 z m 13.3102,12.20789 c 0.007,0.0227 -0.006,0.0467 -0.002,0.0696 0.19699,0.15033 0.38844,0.3164 0.59501,0.43775 -0.20215,-0.16277 -0.39365,-0.34029 -0.59276,-0.50731 z m 25.34195,5.83366 c -0.0685,-0.1404 0.0422,0.32196 0.13305,0.44909 0.0537,0.0751 0.11431,0.14436 0.16935,0.21849 -0.10192,-0.22221 -0.19513,-0.44778 -0.3024,-0.66758 z m -18.53904,4.76914 c -0.15567,0.24227 0.0547,0.72965 0.30091,1.21497 -0.0977,-0.40571 -0.18985,-0.8138 -0.30091,-1.21497 z M 41.658453,379.58426 c 0.165971,-0.37079 -0.428612,0.69592 -0.566279,1.07812 -0.03739,0.10377 -0.02605,0.0901 -0.06124,0.18902 0.177255,-0.35776 0.434817,-0.83663 0.627522,-1.26714 z M 405.84165,494.2327 c -0.5083,0.29057 -0.58878,1.12499 -0.60109,1.68145 0.1008,-0.19798 0.198,-0.39778 0.29865,-0.59576 0.10076,-0.36192 0.6286,-1.27214 0.30244,-1.08569 z m 15.5549,13.62245 c -0.42669,0.85727 -0.84476,1.71945 -1.29135,2.56678 -0.24813,0.47125 -0.62818,0.87609 -0.81425,1.37525 -1.24599,3.34265 -1.46036,6.97818 -2.68924,10.3276 -1.39041,3.53685 -2.08041,5.58947 -3.99421,9.0393 -2.96515,5.34493 -0.76231,0.8043 -2.74598,3.74772 -0.58885,0.87378 -1.00753,1.85606 -1.63908,2.70362 -1.36389,3.5973 -1.10253,3.51859 -3.42189,6.88457 -0.37637,0.54614 -0.7913,1.08695 -1.31628,1.49243 -0.10243,0.0791 -0.0889,-0.4706 -0.15193,-0.35761 -1.15943,2.07827 -1.70427,4.46371 -3.01966,6.46874 -1.99494,-0.1311 0.23102,-0.0311 -2.62726,4.9332 -0.28026,0.48673 -0.75863,0.83066 -1.10156,1.27545 -3.28021,4.25434 3.50151,-3.56709 -3.72657,5.35206 -0.18817,0.23218 0.17051,-0.57109 0.25629,-0.85736 -1.07291,1.8469 -2.63639,3.93162 -3.40826,5.95311 -2.14958,5.63005 -1.92418,7.27331 -6.33037,11.21066 -0.68691,0.77328 -1.38859,1.53373 -2.06021,2.32031 -0.57735,0.6761 -0.84654,1.77558 -1.686,2.06855 -0.0237,0.008 -0.0129,-0.02 -0.031,-0.0174 -0.52074,1.69789 -0.89299,3.46266 -1.74193,5.01712 -0.86834,1.58992 -2.28419,2.81273 -3.4264,4.21874 0.18365,-0.43018 0.88392,-1.61936 0.55116,-1.29057 -0.49575,0.48985 -0.69763,1.20751 -1.06679,1.79864 -2.40334,3.8484 -5.17575,7.51905 -8.80416,10.31626 -2.76493,3.65611 -3.23556,4.56904 -6.98058,7.97856 -0.87974,0.80091 -1.92309,1.39933 -2.89037,2.09198 -3.29761,2.36142 -6.61092,4.49656 -10.19982,6.38632 -1.1598,0.63805 -2.16156,1.78208 -3.47857,1.91431 -0.0206,0.004 -0.0114,-0.0128 -0.0272,-0.0136 -2.95157,2.61185 -6.24031,4.79143 -10.12649,5.83745 -1.40706,0.86341 -2.72973,1.88213 -4.22101,2.59021 -1.13253,0.53775 -2.39505,0.74597 -3.59198,1.11894 0.25745,-0.18047 1.07115,-0.64397 0.77344,-0.54283 -2.28363,0.7759 -3.64245,1.76284 -5.99016,3.17992 -6.98113,2.91166 -14.23911,5.00163 -21.19729,7.98614 -1.40525,0.29853 -2.81111,0.59589 -4.21647,0.89442 0.18396,-0.1061 0.76256,-0.35063 0.55267,-0.31831 -1.69586,0.26129 -3.27769,1.04114 -4.96269,1.36541 -0.5006,0.0963 -1.02141,-0.23811 -1.52343,-0.14439 -1.61335,0.79424 -3.14881,1.77197 -4.84021,2.3823 -4.10464,1.48099 -2.71082,0.7879 -4.87877,0.76738 -0.3031,-0.004 -0.61906,-0.0549 -0.90802,0.0379 -0.95319,0.30209 -1.84446,0.77554 -2.77922,1.13028 -0.38036,0.14431 -0.77619,0.24329 -1.16432,0.36515 -1.40485,0.44427 -2.78129,0.99429 -4.21496,1.33443 -1.07449,0.25491 -2.1931,0.2659 -3.28275,0.44532 -3.28688,0.54116 -6.48099,1.13643 -9.58668,2.21066 H 421.39655 Z M 13.937241,526.96877 V 653.40019 H 173.86532 c -0.006,0.004 0.85966,0.30619 -2.31426,-0.77342 -3.44384,-1.87726 -3.0346,-0.81766 -7.74418,-1.50379 -6.18317,-0.90077 -8.41353,-1.69792 -12.08995,-4.1696 -5.35567,0.42882 -10.7197,0.6744 -15.94351,-0.15875 -1.29413,-1.09904 -2.58893,-2.1975 -3.88306,-3.29635 -1.00747,-0.0958 -1.94371,-0.53512 -2.86919,-1.02372 -0.003,0.006 -0.0197,-0.006 -0.0348,-0.0174 -0.52009,-0.27468 -1.03694,-0.56609 -1.57031,-0.77721 -2.13945,-0.45627 -3.7363,-2.67224 -5.07988,-4.60207 -1.10714,-0.67172 -2.21342,-1.34384 -3.32056,-2.0156 1.65021,1.04709 -0.35296,0.14911 -0.4884,0.0567 -1.22091,-0.83214 -2.95061,-2.16472 -4.49772,-3.35307 0.11691,0.1301 0.20692,0.27438 0.25554,0.44683 0.1045,0.37049 -0.76491,0.16695 -1.14844,0.13304 -4.06142,-0.35857 -7.23557,-1.44305 -10.57029,-3.47252 0.0156,0.0124 0.0312,0.0248 0.0469,0.0372 -0.4202,-0.25432 -1.66732,-1.03594 -1.25957,-0.76207 0.41105,0.27596 0.80847,0.47903 1.21269,0.72503 -1.87333,-1.47844 -3.745535,-2.95579 -5.618933,-4.43423 0.710376,1.08275 1.99579,2.63512 -1.179435,0.11342 -1.382505,-1.09792 -3.400181,-3.83248 -5.479072,-4.54458 -0.778488,-0.49854 -1.70419,-0.82084 -2.335427,-1.49624 -3.875043,-4.14612 -4.076054,-4.48772 -4.781239,-6.53148 -0.703237,0.0696 -1.40664,0.1328 -2.111639,0.1308 -1.776314,-0.005 -3.546569,-0.19271 -5.320301,-0.28881 -5.579887,-1.47085 -11.009976,-3.14354 -15.777183,-6.5761 -0.710084,-0.51128 -4.578946,-5.02379 -4.933963,-5.42992 -4.724061,-5.47666 -5.564891,-6.07077 -9.620693,-12.48385 -1.374566,-2.17347 -2.615328,-4.43289 -3.793087,-6.71899 -0.349846,-0.67897 -2.572032,-6.01828 -3.304681,-7.27921 -0.764576,-1.31582 -1.675932,-2.54232 -2.513855,-3.81275 -3.512869,-6.52944 -3.300051,-4.9687 -4.754022,-11.55844 -0.189074,-0.85695 -1.203284,-6.47012 -1.199091,-8.02544 8.13e-4,-0.29881 0.474467,-0.54372 0.361391,-0.82031 -0.429665,-1.051 -1.242331,-1.90249 -1.862899,-2.85332 -3.097884,-4.10144 -6.392533,-7.99595 -9.326593,-12.22452 -0.988589,-1.42475 -2.06505,-2.79831 -2.906244,-4.31476 -0.08694,-0.15672 0.650897,0.18182 0.53755,0.0431 -0.82095,-1.00557 -1.787471,-1.88313 -2.709672,-2.79889 z M 371.4589,563.45483 c -0.61057,0.28609 -1.51434,1.84833 -1.84551,2.36189 1.22965,-1.31484 2.38602,-2.61515 1.84551,-2.36189 z m -9.61313,14.4904 c -0.38677,0.1129 -0.62567,0.70397 -0.83392,1.23462 0.41242,-0.3882 0.80784,-0.79244 1.21118,-1.18926 -0.14019,-0.067 -0.26464,-0.0783 -0.37726,-0.0454 z m -296.564637,3.00604 c -0.02528,0.0313 -0.05475,0.048 -0.08165,0.0779 0.07224,0.0943 0.15559,0.18121 0.228329,0.2752 -0.04607,-0.11975 -0.09808,-0.23522 -0.146675,-0.35307 z m 55.603457,54.14277 c -0.28449,-0.34239 0.19988,0.93445 0.54133,1.22028 0.24224,0.20257 0.50437,0.37866 0.76134,0.56249 -0.43073,-0.62005 -0.95475,-1.36401 -1.30267,-1.78277 z m 6.58214,4.64592 c 0.21348,0.39507 0.66059,1.12835 1.02142,1.73663 0.0634,0.0711 0.1361,0.19696 0.19506,0.24797 0.49652,0.42964 1.6965,0.90043 2.59778,1.25582 -1.27157,-1.07988 -2.5427,-2.16054 -3.81426,-3.24042 z" />
    </clipPath>
  </defs>
  <g
     inkscape:label="Warstwa 1"
     inkscape:groupmode="layer"
     id="layer1">
    <path
       id="rect25"
       style="fill:#ffffff;fill-opacity:1;stroke:#ffffff;stroke-width:0;stroke-dasharray:none;stroke-opacity:1"
       d="m 270.47061,149.12097 v 172.4336 h 58.78515 V 548.25964 H 518.5585 V 342.91589 h 25.44922 c 2.73174,-9.05468 5.46366,-18.10935 8.19531,-27.16406 13.52017,-0.0343 27.04038,-0.0675 40.56055,-0.10156 0.96717,3.53291 1.93218,7.06644 2.89843,10.59961 2.14328,-6.638 4.28615,-13.27615 6.42969,-19.91406 0.14909,-0.46159 0.29818,-0.92319 0.44727,-1.38477 h 51.45898 c 3.251,10.93244 6.49843,21.86598 9.74805,32.79883 h 3.22851 v -86.54883 h 17.50391 v -19.69336 h 181.15625 v -28.75586 h 26.72266 v -53.63086 z" />
    <path
       id="rect27-2"
       style="fill:#ffffff;fill-opacity:1;stroke:#ffffff;stroke-width:0;stroke-dasharray:none;stroke-opacity:1"
       d="m 880.63467,218.09949 v 28.75586 H 699.47842 v 19.69336 h -17.50195 v 71.23828 h 2.75 v 5.16601 h 49.4414 v 245.19532 h 170.95899 v -16.40821 h 57.97265 v 16.40821 H 1186.2558 V 266.43738 h -17.209 V 246.85535 H 987.37881 v -28.75586 z m 53.17187,6.06054 a 22.254683,22.237864 0 0 1 22.25586,22.23633 22.254683,22.237864 0 0 1 -22.25586,22.24024 22.254683,22.237864 0 0 1 -22.25781,-22.24024 22.254683,22.237864 0 0 1 22.25781,-22.23633 z m 0.24219,124.70704 a 14.493929,14.493929 0 0 1 14.4961,14.49609 14.493929,14.493929 0 0 1 -14.4961,14.49609 14.493929,14.493929 0 0 1 -14.49023,-14.49609 14.493929,14.493929 0 0 1 14.49023,-14.49609 z m -0.30859,43.92578 a 14.493929,14.493929 0 0 1 14.49609,14.49609 14.493929,14.493929 0 0 1 -14.49609,14.49609 14.493929,14.493929 0 0 1 -14.49024,-14.49609 14.493929,14.493929 0 0 1 14.49024,-14.49609 z m 0.32422,65.99218 a 14.493929,14.493929 0 0 1 14.49609,14.49024 14.493929,14.493929 0 0 1 -14.49609,14.49609 14.493929,14.493929 0 0 1 -14.49219,-14.49609 14.493929,14.493929 0 0 1 14.49219,-14.49024 z" />
    <path
       id="path1-7-3-3"
       style="fill:#ffffff;stroke-width:0.933701"
       d="m 613.91573,320.68581 -10.68555,33.10743 h -16.84766 v 0.004 H 557.0837 l -1.46485,4.85352 H 534.29268 V 618.9809 H 717.91963 V 358.65076 h -49.4414 v -5.16602 h -16.93555 l -9.74805,-32.79883 z m 22.00781,8.66797 1.4668,5.36719 h -19.54102 l 1.60742,-5.32617 z m -55.62891,2.0625 -16.46679,0.0391 -1.60743,5.32618 h 19.54102 z m 35.80469,9.10352 h 22.875 l 1.48047,5.41797 H 614.4626 Z m -55.62891,2.06054 -1.63476,5.41797 h 25.99023 l -1.48047,-5.41797 z m 52.24219,9.15625 h 29.32813 l 1.98047,7.2461 h -33.4961 z" />
    <path
       style="fill:none;fill-opacity:1;stroke:#ffffff;stroke-width:4.28399;stroke-dasharray:none;stroke-opacity:1"
       d="M 97.757512,286.02469 C 132.18551,260.78564 174.74699,246.829 217.43533,246.78027 c 43.01679,-0.0491 85.93443,14.03127 120.56171,39.55378 34.1166,25.1461 60.01646,61.25965 72.89304,101.63864 12.87658,40.37899 12.66482,84.81935 -0.596,125.07379 -13.26082,40.25444 -39.50368,76.11951 -73.85838,100.93933 -34.3547,24.81983 -76.64763,38.46896 -119.03001,38.41438 -42.38238,-0.0546 -84.64002,-13.81258 -118.930687,-38.7208 C 64.184336,588.77117 38.033938,552.83863 24.876835,512.55017 11.719731,472.26172 11.622416,427.82095 24.602948,387.47526 37.583481,347.12957 63.576261,311.08285 97.757512,286.02469 Z"
       id="path29"
       transform="matrix(2.5833389,0,0,2.5833389,18.311789,-588.40143)"
       inkscape:original-d="m 97.757512,286.02469 c -80.079843,0.36829 79.785218,-26.0451 119.677818,-39.24442 39.89261,-13.19933 80.37448,26.36919 120.56171,39.55378 40.18724,13.1846 -160.15968,0.0295 -240.239528,-0.30936 z"
       inkscape:path-effect="#path-effect29"
       clip-path="url(#clipPath98)" />
    <rect
       style="fill:#ffffff;fill-opacity:1;stroke:none;stroke-width:0;stroke-dasharray:none"
       id="rect1"
       width="60.055447"
       height="228.94817"
       x="270.4722"
       y="319.31146" />
  </g>
</svg>
